# xmcd
#
# Track frame offsets:
#	150
#	18522
#	35692
#	52412
#	68757
#	84837
#	93992
#	104222
#	116955
#	129460
#	142807
#	155512
#
# Disc length: 2277 seconds
#
# Revision: 0
# Processed by: cddbd v1.4PL0 Copyright (c) Steve Scherf et al.
# Submitted via: dBpowerAMP V4.0
#
DISCID=a908e30c
DTITLE=Kaio and Kanhoto - Kaio and Kanhoto
DYEAR=1900
DGENRE=Sertanejo
TTITLE0=De quem e' esse coracao
TTITLE1=Sem hora marcada
TTITLE2=Deixa o pau cai a foia
TTITLE3=O caminho e' voce
TTITLE4=Solidao
TTITLE5=De onde eu venho
TTITLE6=Baile em Barretos
TTITLE7=Maluco por voce
TTITLE8=Tudo esta desarrumado
TTITLE9=Segura peao
TTITLE10=O amor e assim
TTITLE11=A vaca ja' foi pro brejo
EXTD=
EXTT0=
EXTT1=
EXTT2=
EXTT3=
EXTT4=
EXTT5=
EXTT6=
EXTT7=
EXTT8=
EXTT9=
EXTT10=
EXTT11=
PLAYORDER=
